HIERARCHY
ROOT Hips
{
    OFFSET 0.000000 0.000000 0.000000
    CHANNELS 6 Xposition Yposition Zposition Zrotation Xrotation Yrotation
    JOINT Spine
    {
        OFFSET -0.000000 7.236184 0.000000
        CHANNELS 3 Zrotation Xrotation Yrotation
        JOINT Spine1
        {
            OFFSET -0.000000 20.420147 0.000000
            CHANNELS 3 Zrotation Xrotation Yrotation
            JOINT Neck
            {
                OFFSET -0.000000 20.336288 1.848754
                CHANNELS 3 Zrotation Xrotation Yrotation
                JOINT Head
                {
                    OFFSET -0.000000 12.354461 -1.764923
                    CHANNELS 3 Zrotation Xrotation Yrotation
                    End Site
                    {
                        OFFSET -0.000000 22.061537 0.000000
                    }
                }
            }
            JOINT LeftShoulder
            {
                OFFSET 3.573296 18.396038 -0.314103
                CHANNELS 3 Zrotation Xrotation Yrotation
                JOINT LeftArm
                {
                    OFFSET 10.880760 0.000000 0.000000
                    CHANNELS 3 Zrotation Xrotation Yrotation
                    JOINT LeftForeArm
                    {
                        OFFSET 27.185530 0.000000 0.000000
                        CHANNELS 3 Zrotation Xrotation Yrotation
                        JOINT LeftHand
                        {
                            OFFSET 27.825975 0.000000 0.000000
                            CHANNELS 3 Zrotation Xrotation Yrotation
                            End Site
                            {
                                OFFSET 13.236923 0.000000 0.000000
                            }
                        }
                    }
                }
            }
            JOINT RightShoulder
            {
                OFFSET -3.474926 18.396038 -0.314103
                CHANNELS 3 Zrotation Xrotation Yrotation
                JOINT RightArm
                {
                    OFFSET -10.880760 0.000000 0.000000
                    CHANNELS 3 Zrotation Xrotation Yrotation
                    JOINT RightForeArm
                    {
                        OFFSET -27.185530 0.000000 0.000000
                        CHANNELS 3 Zrotation Xrotation Yrotation
                        JOINT RightHand
                        {
                            OFFSET -27.825975 0.000000 0.000000
                            CHANNELS 3 Zrotation Xrotation Yrotation
                            End Site
                            {
                                OFFSET -13.236923 0.000000 0.000000
                            }
                        }
                    }
                }
            }
        }
    }
    JOINT LeftUpLeg
    {
        OFFSET 8.824615 0.000000 0.000000
        CHANNELS 3 Zrotation Xrotation Yrotation
        JOINT LeftLeg
        {
            OFFSET -0.000000 -35.111282 0.000000
            CHANNELS 3 Zrotation Xrotation Yrotation
            JOINT LeftFoot
            {
                OFFSET -0.000000 -42.324711 0.000000
                CHANNELS 3 Zrotation Xrotation Yrotation
                JOINT LeftToeBase
                {
                    OFFSET -0.000000 -5.735999 13.236923
                    CHANNELS 3 Zrotation Xrotation Yrotation
                    End Site
                    {
                        OFFSET -0.000000 0.000000 3.529846
                    }
                }
            }
        }
    }
    JOINT RightUpLeg
    {
        OFFSET -8.824615 0.000000 0.000000
        CHANNELS 3 Zrotation Xrotation Yrotation
        JOINT RightLeg
        {
            OFFSET -0.000000 -35.111282 0.000000
            CHANNELS 3 Zrotation Xrotation Yrotation
            JOINT RightFoot
            {
                OFFSET -0.000000 -42.324711 0.000000
                CHANNELS 3 Zrotation Xrotation Yrotation
                JOINT RightToeBase
                {
                    OFFSET -0.000000 -5.735999 13.236923
                    CHANNELS 3 Zrotation Xrotation Yrotation
                    End Site
                    {
                        OFFSET -0.000000 0.000000 3.529846
                    }
                }
            }
        }
    }
}
MOTION
Frames:    7
Frame Time:    0.008333
3.974202    83.831467    105.975533    0.701913    -11.539437    -178.638107    -1.227155    -18.448582    -1.595423    3.873594    9.195872    -1.707742    1.665036    9.077435    0.162862    2.715307    -6.658155    0.600943    -2.806663    17.817171    1.645123    -42.161385    44.222088    -44.567345    0.703268    2.008556    -19.116404    19.342115    1.902875    -1.315395    6.533001    19.308853    -7.122492    45.207977    43.164761    29.962320    -0.345263    -9.443201    9.744298    -18.610109    -8.912466    -3.100884    11.264257    -16.294903    4.816633    0.070713    15.774458    16.262796    -10.231806    -3.190604    -12.781005    -0.674219    -0.290596    0.747738    -2.812924    -4.732982    6.489901    3.312488    1.810227    -0.350867    -3.087451    -6.704526    -12.183240    -1.627856    -0.618446    1.762135    
4.050893    83.824173    106.014725    0.758925    -11.537708    -178.555893    -1.199206    -18.412670    -1.586533    3.842515    9.217361    -1.702053    1.670455    9.060822    0.169269    2.702003    -6.641891    0.603099    -2.782674    17.818325    1.660561    -42.240013    44.204849    -44.486530    0.760125    1.929403    -19.155239    19.346132    1.838078    -1.288491    6.562434    19.328421    -7.114106    45.268848    43.140217    29.948158    -0.348281    -9.633952    9.800839    -18.516697    -9.093379    -3.176985    11.343043    -16.506821    4.714935    0.075839    16.034843    16.401876    -10.203272    -3.136153    -12.798436    -0.687781    -0.337629    0.762845    -2.718044    -4.750209    6.512309    3.329251    1.810430    -0.389770    -3.167092    -6.712578    -12.245711    -1.659781    -0.597033    1.796639    
4.127048    83.816948    106.053635    0.815829    -11.535789    -178.473587    -1.171303    -18.376736    -1.577550    3.811509    9.238769    -1.696197    1.676144    9.044496    0.175193    2.689090    -6.626929    0.604952    -2.758589    17.819977    1.675956    -42.320866    44.186493    -44.403618    0.817267    1.850410    -19.195099    19.351686    1.773566    -1.261606    6.591526    19.347553    -7.105143    45.330967    43.114254    29.932484    -0.350651    -9.827829    9.859354    -18.423195    -9.277307    -3.255032    11.421071    -16.717842    4.615807    0.080424    16.293987    16.538630    -10.173711    -3.081763    -12.815188    -0.701344    -0.384417    0.777954    -2.623040    -4.766778    6.531820    3.344771    1.809787    -0.428343    -3.245122    -6.720277    -12.305794    -1.691106    -0.576031    1.830493    
4.202895    83.809753    106.092369    0.872975    -11.533566    -178.390274    -1.143685    -18.340506    -1.568369    3.780861    9.260380    -1.690095    1.681597    9.027460    0.179350    2.677649    -6.612883    0.607060    -2.734473    17.822351    1.692075    -42.406475    44.166645    -44.315914    0.875978    1.770921    -19.237387    19.359430    1.708867    -1.234443    6.620400    19.366518    -7.095635    45.395283    43.084915    29.914255    -0.352015    -10.029664    9.923221    -18.327385    -9.468479    -3.339401    11.498794    -16.929165    4.520297    0.083996    16.553450    16.673000    -10.141389    -3.027263    -12.830684    -0.714812    -0.431491    0.792960    -2.527086    -4.781943    6.545869    3.358307    1.807261    -0.466414    -3.320798    -6.727284    -12.362164    -1.721572    -0.555650    1.863416    
4.277547    83.802734    106.130508    0.929992    -11.531015    -178.306244    -1.116768    -18.304132    -1.558984    3.751074    9.281981    -1.683648    1.686858    9.009138    0.182680    2.667861    -6.600010    0.607595    -2.710611    17.825796    1.708863    -42.498501    44.144501    -44.222008    0.936120    1.691604    -19.282318    19.370741    1.644568    -1.207403    6.648691    19.384706    -7.085047    45.462486    43.050949    29.891956    -0.351711    -10.241291    9.994267    -18.229622    -9.668372    -3.432882    11.575540    -17.138844    4.430853    0.086203    16.810783    16.803617    -10.105556    -2.973023    -12.844773    -0.728097    -0.478778    0.807766    -2.430435    -4.795156    6.551670    3.368581    1.802437    -0.504105    -3.392286    -6.733259    -12.411900    -1.750693    -0.536721    1.894887    
4.351087    83.795860    106.168106    0.987129    -11.528051    -178.220642    -1.090895    -18.267529    -1.549268    3.722675    9.304018    -1.676889    1.691313    8.988864    0.184589    2.660619    -6.588534    0.606467    -2.686911    17.830544    1.726790    -42.599754    44.119602    -44.119854    0.998837    1.611827    -19.330667    19.387045    1.580320    -1.180452    6.675928    19.402067    -7.072749    45.534340    43.010349    29.864096    -0.349494    -10.467363    10.075181    -18.128515    -9.881076    -3.539508    11.651483    -17.347807    4.347949    0.086502    17.067099    16.931484    -10.064765    -2.918738    -12.857266    -0.741110    -0.526727    0.822275    -2.332566    -4.805785    6.547042    3.375023    1.794665    -0.540745    -3.459316    -6.737745    -12.454780    -1.778526    -0.519391    1.924965    
4.424006    83.789139    106.205490    1.045020    -11.524642    -178.132004    -1.066470    -18.230375    -1.539095    3.696505    9.326861    -1.669592    1.694399    8.966504    0.183798    2.656442    -6.579114    0.603985    -2.663532    17.836870    1.746056    -42.713245    44.091301    -44.006618    1.065340    1.530345    -19.383427    19.409908    1.515038    -1.153536    6.701412    19.418692    -7.058534    45.612633    42.961506    29.829729    -0.345129    -10.714419    10.169415    -18.022348    -10.112465    -3.664526    11.727302    -17.558329    4.271227    0.084079    17.325010    17.059174    -10.017371    -2.863688    -12.868259    -0.754061    -0.576287    0.836720    -2.232298    -4.813629    6.529796    3.377126    1.783398    -0.576988    -3.520951    -6.740210    -12.489768    -1.805455    -0.504059    1.954070    
